M48
;GenerationSoftware,Autodesk,EAGLE,9.6.2*%
;CreationDate,2023-04-24T10:27:55Z*%
FMAT,2
ICI,OFF
METRIC,TZ,000.000
T3C0.813
T2C1.016
T1C1.100
%
G90
M71
T1
X19204Y20166
X13816Y25554
T2
X22860Y25400
X25400Y25400
X27940Y25400
X22860Y58420
X22860Y55880
X22860Y53340
T3
X34290Y71120
X34290Y68580
X34290Y66040
X34290Y63500
X34290Y60960
X34290Y58420
X34290Y55880
X34290Y53340
X34290Y50800
X34290Y48260
X34290Y45720
X34290Y43180
X34290Y40640
X34290Y38100
X34290Y35560
X34290Y33020
X34290Y30480
X34290Y27940
X16510Y27940
X16510Y30480
X16510Y33020
X16510Y35560
X16510Y38100
X16510Y40640
X16510Y43180
X16510Y45720
X16510Y48260
X16510Y50800
X16510Y53340
X34290Y76200
X16510Y58420
X16510Y60960
X16510Y63500
X16510Y66040
X16510Y68580
X16510Y55880
X16510Y73660
X16510Y76200
X25146Y69707
X25146Y67707
X34290Y73660
X16510Y71120
M30