G04 EAGLE Gerber RS-274X export*
G75*
%MOMM*%
%FSLAX34Y34*%
%LPD*%
%INBottom Copper*%
%IPPOS*%
%AMOC8*
5,1,8,0,0,1.08239X$1,22.5*%
G01*
%ADD10C,1.524000*%
%ADD11C,1.320800*%
%ADD12R,1.320800X1.320800*%
%ADD13P,1.429621X8X22.500000*%
%ADD14C,1.700000*%


D10*
X228600Y246380D02*
X228600Y261620D01*
X254000Y261620D02*
X254000Y246380D01*
X279400Y246380D02*
X279400Y261620D01*
X236220Y584200D02*
X220980Y584200D01*
X220980Y558800D02*
X236220Y558800D01*
X236220Y533400D02*
X220980Y533400D01*
D11*
X336296Y762000D02*
X349504Y762000D01*
X349504Y736600D02*
X336296Y736600D01*
X336296Y711200D02*
X349504Y711200D01*
X349504Y685800D02*
X336296Y685800D01*
X336296Y660400D02*
X349504Y660400D01*
X349504Y635000D02*
X336296Y635000D01*
X336296Y609600D02*
X349504Y609600D01*
X349504Y584200D02*
X336296Y584200D01*
X336296Y558800D02*
X349504Y558800D01*
X349504Y533400D02*
X336296Y533400D01*
X336296Y508000D02*
X349504Y508000D01*
X349504Y482600D02*
X336296Y482600D01*
X336296Y457200D02*
X349504Y457200D01*
X349504Y431800D02*
X336296Y431800D01*
X336296Y406400D02*
X349504Y406400D01*
X349504Y381000D02*
X336296Y381000D01*
X336296Y355600D02*
X349504Y355600D01*
X349504Y330200D02*
X336296Y330200D01*
X336296Y304800D02*
X349504Y304800D01*
X349504Y279400D02*
X336296Y279400D01*
X171704Y279400D02*
X158496Y279400D01*
X158496Y304800D02*
X171704Y304800D01*
X171704Y330200D02*
X158496Y330200D01*
X158496Y355600D02*
X171704Y355600D01*
X171704Y381000D02*
X158496Y381000D01*
X158496Y406400D02*
X171704Y406400D01*
X171704Y431800D02*
X158496Y431800D01*
X158496Y457200D02*
X171704Y457200D01*
X171704Y482600D02*
X158496Y482600D01*
X158496Y508000D02*
X171704Y508000D01*
X171704Y533400D02*
X158496Y533400D01*
X158496Y558800D02*
X171704Y558800D01*
X171704Y584200D02*
X158496Y584200D01*
X158496Y609600D02*
X171704Y609600D01*
X171704Y635000D02*
X158496Y635000D01*
X158496Y660400D02*
X171704Y660400D01*
X171704Y685800D02*
X158496Y685800D01*
X158496Y711200D02*
X171704Y711200D01*
X171704Y736600D02*
X158496Y736600D01*
X158496Y762000D02*
X171704Y762000D01*
D12*
X251460Y697070D03*
D13*
X251460Y677070D03*
D14*
X138159Y255541D03*
X192041Y201659D03*
M02*
